<?xml version="1.0" encoding="utf-8"?>
<!-- Generator: Adobe Illustrator 24.2.0, SVG Export Plug-In . SVG Version: 6.00 Build 0)  -->
<svg version="1.1" id="Слой_1" xmlns="http://www.w3.org/2000/svg" xmlns:xlink="http://www.w3.org/1999/xlink" x="0px" y="0px"
	 viewBox="0 0 490.7 62.6" style="enable-background:new 0 0 490.7 62.6;" xml:space="preserve">
<style type="text/css">
	.st0{fill:#EEEEEE;stroke:#EEEEEE;stroke-width:2;stroke-miterlimit:10;}
	.st1{fill:url(#SVGID_1_);}
	.st2{fill:url(#SVGID_2_);}
	.st3{fill:url(#SVGID_3_);}
	.st4{fill:url(#SVGID_4_);}
	.st5{fill:url(#SVGID_5_);}
	.st6{fill:url(#SVGID_6_);}
	.st7{fill:url(#SVGID_7_);}
	.st8{fill:url(#SVGID_8_);}
	.st9{fill:url(#SVGID_9_);}
	.st10{fill:url(#SVGID_10_);}
	.st11{fill:url(#SVGID_11_);}
	.st12{fill:url(#SVGID_12_);}
	.st13{fill:url(#SVGID_13_);}
	.st14{fill:url(#SVGID_14_);}
	.st15{fill:url(#SVGID_15_);}
	.st16{fill:url(#SVGID_16_);}
	.st17{fill:url(#SVGID_17_);}
	.st18{fill:url(#SVGID_18_);}
	.st19{fill:url(#SVGID_19_);}
	.st20{fill:url(#SVGID_20_);}
	.st21{fill:url(#SVGID_21_);}
	.st22{fill:url(#SVGID_22_);}
	.st23{fill:url(#SVGID_23_);}
	.st24{fill:url(#SVGID_24_);}
	.st25{fill:url(#SVGID_25_);}
	.st26{fill:url(#SVGID_26_);}
	.st27{fill:url(#SVGID_27_);}
	.st28{fill:url(#SVGID_28_);}
</style>
<path class="st0" d="M30.18,61.22c-4.05,0-7.84-0.76-11.37-2.29c-3.53-1.52-6.6-3.65-9.23-6.38c-2.63-2.73-4.68-5.91-6.15-9.57
	c-1.48-3.65-2.21-7.6-2.21-11.85c0-4.2,0.74-8.11,2.21-11.74c1.47-3.63,3.53-6.8,6.15-9.53c2.63-2.73,5.69-4.86,9.19-6.41
	c3.5-1.55,7.3-2.33,11.4-2.33c3.85,0,7.16,0.5,9.94,1.5c2.78,1,5.56,2.65,8.36,4.95c0.4,0.3,0.71,0.61,0.94,0.94
	c0.22,0.33,0.37,0.65,0.45,0.98c0.08,0.33,0.11,0.71,0.11,1.16c0,0.95-0.34,1.74-1.01,2.36c-0.68,0.63-1.49,0.98-2.44,1.05
	c-0.95,0.08-1.88-0.24-2.78-0.94c-1.85-1.6-3.76-2.82-5.74-3.68c-1.98-0.85-4.59-1.28-7.84-1.28c-2.95,0-5.73,0.6-8.33,1.8
	c-2.6,1.2-4.89,2.85-6.86,4.95c-1.98,2.1-3.51,4.54-4.61,7.31c-1.1,2.78-1.65,5.74-1.65,8.89c0,3.2,0.55,6.19,1.65,8.97
	c1.1,2.78,2.64,5.21,4.61,7.31c1.98,2.1,4.26,3.74,6.86,4.91c2.6,1.18,5.38,1.76,8.33,1.76c2.55,0,4.96-0.44,7.24-1.31
	c2.28-0.87,4.46-2.09,6.56-3.64c0.9-0.65,1.79-0.94,2.66-0.86c0.87,0.08,1.61,0.43,2.21,1.05c0.6,0.63,0.9,1.49,0.9,2.59
	c0,0.5-0.1,0.99-0.3,1.46c-0.2,0.48-0.5,0.91-0.9,1.31c-2.7,2.15-5.59,3.78-8.67,4.88C36.82,60.67,33.58,61.22,30.18,61.22z"/>
<path class="st0" d="M89.3,61.22c-4.4,0-8.43-0.74-12.08-2.21c-3.65-1.47-6.79-3.55-9.42-6.23c-2.63-2.68-4.66-5.85-6.11-9.53
	c-1.45-3.68-2.18-7.71-2.18-12.12c0-4.4,0.72-8.43,2.18-12.08c1.45-3.65,3.49-6.81,6.11-9.49c2.63-2.68,5.76-4.75,9.42-6.23
	c3.65-1.47,7.68-2.21,12.08-2.21c4.4,0,8.41,0.74,12.04,2.21c3.63,1.48,6.76,3.55,9.42,6.23c2.65,2.68,4.7,5.84,6.15,9.49
	c1.45,3.65,2.18,7.68,2.18,12.08c0,4.4-0.73,8.44-2.18,12.12c-1.45,3.68-3.5,6.85-6.15,9.53c-2.65,2.68-5.79,4.75-9.42,6.23
	C97.71,60.49,93.7,61.22,89.3,61.22z M89.3,54.17c3.25,0,6.24-0.59,8.97-1.76c2.73-1.17,5.09-2.8,7.09-4.88
	c2-2.07,3.54-4.51,4.61-7.31c1.08-2.8,1.61-5.83,1.61-9.08c0-3.25-0.54-6.28-1.61-9.08c-1.08-2.8-2.61-5.24-4.61-7.31
	c-2-2.08-4.36-3.69-7.09-4.84c-2.73-1.15-5.71-1.73-8.97-1.73c-3.25,0-6.24,0.58-8.97,1.73c-2.73,1.15-5.08,2.76-7.05,4.84
	c-1.98,2.08-3.51,4.51-4.61,7.31c-1.1,2.8-1.65,5.83-1.65,9.08c0,3.25,0.55,6.28,1.65,9.08c1.1,2.8,2.64,5.24,4.61,7.31
	c1.98,2.08,4.33,3.7,7.05,4.88C83.06,53.59,86.05,54.17,89.3,54.17z"/>
<path class="st0" d="M135.21,60.47c-1.1,0-2.03-0.37-2.78-1.13c-0.75-0.75-1.12-1.67-1.12-2.78V5.78c0-1.15,0.37-2.09,1.12-2.81
	c0.75-0.72,1.68-1.09,2.78-1.09h13.58c4.3,0,8.21,0.71,11.74,2.14c3.53,1.43,6.59,3.45,9.19,6.08c2.6,2.63,4.6,5.71,6,9.27
	c1.4,3.55,2.1,7.48,2.1,11.78c0,4.3-0.7,8.24-2.1,11.82c-1.4,3.58-3.4,6.68-6,9.3c-2.6,2.63-5.66,4.65-9.19,6.08
	c-3.53,1.43-7.44,2.14-11.74,2.14H135.21z M139.11,53.57h9.68c4.2,0,7.91-0.96,11.14-2.89c3.23-1.92,5.76-4.58,7.61-7.95
	c1.85-3.38,2.78-7.24,2.78-11.59c0-4.4-0.93-8.28-2.78-11.63c-1.85-3.35-4.39-5.98-7.61-7.88c-3.23-1.9-6.94-2.85-11.14-2.85h-9.68
	V53.57z"/>
<path class="st0" d="M193.95,60.47c-1.1,0-2.03-0.37-2.78-1.13c-0.75-0.75-1.12-1.67-1.12-2.78V5.78c0-1.15,0.37-2.09,1.12-2.81
	c0.75-0.72,1.68-1.09,2.78-1.09h33.91c1.15,0,2.08,0.34,2.78,1.01c0.7,0.68,1.05,1.56,1.05,2.66c0,1.05-0.35,1.9-1.05,2.55
	c-0.7,0.65-1.63,0.98-2.78,0.98h-30.01v18.23h21.53c1.15,0,2.07,0.34,2.78,1.01c0.7,0.68,1.05,1.54,1.05,2.59
	c0,1.05-0.35,1.91-1.05,2.59c-0.7,0.68-1.63,1.01-2.78,1.01h-21.53v18.76h30.01c1.15,0,2.08,0.33,2.78,0.98
	c0.7,0.65,1.05,1.5,1.05,2.55c0,1.1-0.35,1.99-1.05,2.66c-0.7,0.68-1.63,1.01-2.78,1.01H193.95z"/>
<path class="st0" d="M246.47,60.47c-1.1,0-2.03-0.37-2.78-1.13c-0.75-0.75-1.12-1.67-1.12-2.78V5.78c0-1.15,0.37-2.09,1.12-2.81
	c0.75-0.72,1.68-1.09,2.78-1.09h13.5c3.75,0,7.08,0.79,9.98,2.36c2.9,1.58,5.16,3.74,6.79,6.49c1.62,2.75,2.44,5.95,2.44,9.6
	c0,3.4-0.81,6.43-2.44,9.08c-1.63,2.65-3.89,4.73-6.79,6.23c-2.9,1.5-6.23,2.25-9.98,2.25h-9.6v18.68c0,1.1-0.36,2.03-1.09,2.78
	C248.56,60.1,247.62,60.47,246.47,60.47z M250.37,30.69h9.6c2.3,0,4.33-0.44,6.08-1.31c1.75-0.87,3.13-2.1,4.13-3.68
	c1-1.58,1.5-3.36,1.5-5.36c0-2.2-0.5-4.15-1.5-5.85c-1-1.7-2.38-3.03-4.13-3.98c-1.75-0.95-3.78-1.43-6.08-1.43h-9.6V30.69z
	 M277.6,60.47c-0.7,0-1.34-0.15-1.91-0.45c-0.58-0.3-1.06-0.77-1.46-1.43l-13.5-21.76l7.58-2.18l12.3,19.81
	c0.9,1.45,1.02,2.81,0.37,4.09C280.33,59.84,279.2,60.47,277.6,60.47z"/>
<path class="st0" d="M434.75,60.47c-1.1,0-2.03-0.37-2.78-1.13c-0.75-0.75-1.13-1.67-1.13-2.78V5.78c0-1.15,0.37-2.09,1.13-2.81
	c0.75-0.72,1.67-1.09,2.78-1.09c1.5,0,2.65,0.7,3.45,2.1l23.48,47.04h-2.4l22.88-47.04c0.8-1.4,1.95-2.1,3.45-2.1
	c1.1,0,2.03,0.36,2.78,1.09c0.75,0.73,1.13,1.66,1.13,2.81v50.79c0,1.1-0.39,2.03-1.16,2.78c-0.78,0.75-1.69,1.13-2.74,1.13
	c-1.1,0-2.02-0.37-2.78-1.13c-0.75-0.75-1.13-1.67-1.13-2.78V16.59l1.5-0.37l-19.66,40.06c-0.85,1.3-1.98,1.95-3.38,1.95
	c-1.65,0-2.85-0.77-3.6-2.33l-19.43-38.94l1.5-0.38v39.99c0,1.1-0.38,2.03-1.13,2.78C436.77,60.1,435.85,60.47,434.75,60.47z"/>
<g>
	<linearGradient id="SVGID_1_" gradientUnits="userSpaceOnUse" x1="281.0741" y1="99.7737" x2="322.1693" y2="-43.2628">
		<stop  offset="0" style="stop-color:#00FF00"/>
		<stop  offset="0.336" style="stop-color:#07F957"/>
		<stop  offset="1" style="stop-color:#15EEFF"/>
	</linearGradient>
	<path class="st1" d="M305.62,14.46v-0.21C305.62,14.31,305.62,14.39,305.62,14.46z"/>
	<linearGradient id="SVGID_2_" gradientUnits="userSpaceOnUse" x1="290.4678" y1="102.4725" x2="331.5629" y2="-40.564">
		<stop  offset="0" style="stop-color:#00FF00"/>
		<stop  offset="0.336" style="stop-color:#07F957"/>
		<stop  offset="1" style="stop-color:#15EEFF"/>
	</linearGradient>
	<path class="st2" d="M332.7,1.89l-25.24,0.06c-0.96,0-1.74,0.78-1.74,1.74l0.03,10.43l-0.13,0.13l-0.02-10.56
		c0-0.96,0.78-1.74,1.74-1.75l25.25-0.06C332.62,1.88,332.66,1.88,332.7,1.89z"/>
	<linearGradient id="SVGID_3_" gradientUnits="userSpaceOnUse" x1="271.5337" y1="97.0327" x2="312.6288" y2="-46.0038">
		<stop  offset="0" style="stop-color:#00FF00"/>
		<stop  offset="0.336" style="stop-color:#07F957"/>
		<stop  offset="1" style="stop-color:#15EEFF"/>
	</linearGradient>
	<path class="st3" d="M291.31,18.04v20.69l-0.05-20.66c0-0.61,0.31-1.15,0.79-1.46C291.6,16.93,291.31,17.45,291.31,18.04z"/>
	<linearGradient id="SVGID_4_" gradientUnits="userSpaceOnUse" x1="281.771" y1="99.9739" x2="322.8661" y2="-43.0626">
		<stop  offset="0" style="stop-color:#00FF00"/>
		<stop  offset="0.336" style="stop-color:#07F957"/>
		<stop  offset="1" style="stop-color:#15EEFF"/>
	</linearGradient>
	<path class="st4" d="M304,45.03c0.02,0,0.05,0,0.07,0.01c-0.04,0-0.08,0.01-0.12,0.01l-10.88,0.02c-0.79,0-1.46-0.52-1.67-1.24
		c0.22,0.7,0.88,1.21,1.66,1.21h10.89C303.96,45.03,303.98,45.03,304,45.03z"/>
	<linearGradient id="SVGID_5_" gradientUnits="userSpaceOnUse" x1="288.1981" y1="101.8204" x2="329.2932" y2="-41.2161">
		<stop  offset="0" style="stop-color:#00FF00"/>
		<stop  offset="0.336" style="stop-color:#07F957"/>
		<stop  offset="1" style="stop-color:#15EEFF"/>
	</linearGradient>
	<polygon class="st5" points="305.68,43.25 305.67,43.24 305.67,38.7 	"/>
	<linearGradient id="SVGID_6_" gradientUnits="userSpaceOnUse" x1="294.7404" y1="103.7001" x2="335.8356" y2="-39.3364">
		<stop  offset="0" style="stop-color:#00FF00"/>
		<stop  offset="0.336" style="stop-color:#07F957"/>
		<stop  offset="1" style="stop-color:#15EEFF"/>
	</linearGradient>
	<path class="st6" d="M332.35,16.24L332.35,16.24l-24.86,0.06c-0.04,0-0.08,0-0.12-0.01L332.35,16.24z"/>
	<linearGradient id="SVGID_7_" gradientUnits="userSpaceOnUse" x1="310.114" y1="108.117" x2="347.2828" y2="-21.2533">
		<stop  offset="0" style="stop-color:#00FF00"/>
		<stop  offset="0.336" style="stop-color:#07F957"/>
		<stop  offset="1" style="stop-color:#15EEFF"/>
	</linearGradient>
	<path class="st7" d="M336.54,16.24h-0.05C336.5,16.24,336.52,16.24,336.54,16.24L336.54,16.24z"/>
	<linearGradient id="SVGID_8_" gradientUnits="userSpaceOnUse" x1="301.9216" y1="105.7633" x2="343.0167" y2="-37.2733">
		<stop  offset="0" style="stop-color:#00FF00"/>
		<stop  offset="0.336" style="stop-color:#07F957"/>
		<stop  offset="1" style="stop-color:#15EEFF"/>
	</linearGradient>
	<path class="st8" d="M307.44,44.97h25.2l-0.1,0.11l-24.76,0.06h-0.37c-0.83,0-1.53,0.59-1.7,1.37
		C305.81,45.64,306.55,44.97,307.44,44.97z"/>
	<linearGradient id="SVGID_9_" gradientUnits="userSpaceOnUse" x1="317.7184" y1="110.3018" x2="358.8135" y2="-32.7348">
		<stop  offset="0" style="stop-color:#00FF00"/>
		<stop  offset="0.336" style="stop-color:#07F957"/>
		<stop  offset="1" style="stop-color:#15EEFF"/>
	</linearGradient>
	<path class="st9" d="M334.43,46.71v10.89c0,0.02,0,0.04,0,0.06l-0.03-10.64l0.02-0.02c-0.01-0.07,0-0.14,0-0.21
		c0-0.05,0-0.09,0.01-0.14C334.43,46.66,334.43,46.68,334.43,46.71z"/>
	<linearGradient id="SVGID_10_" gradientUnits="userSpaceOnUse" x1="298.7766" y1="104.8597" x2="339.8717" y2="-38.1768">
		<stop  offset="0" style="stop-color:#00FF00"/>
		<stop  offset="0.336" style="stop-color:#07F957"/>
		<stop  offset="1" style="stop-color:#15EEFF"/>
	</linearGradient>
	<path class="st10" d="M348.84,17.95c0-0.96-0.78-1.74-1.75-1.74l-10.56,0.03h-0.1c-0.04,0-0.08,0-0.11,0
		c-1.02,0-1.85-0.82-1.85-1.85v-0.03l-0.03-10.74c0-0.94-0.75-1.71-1.69-1.73c-0.02,0-0.04,0-0.05,0h-0.01l-25.24,0.06
		c-0.96,0-1.74,0.78-1.74,1.74l0.03,10.43l-0.13,0.13c0.01,0.07,0,0.14,0,0.21v0.01c0,0.96-0.74,1.75-1.68,1.84h-0.02
		c-0.05,0.01-0.09,0.01-0.14,0.01h-0.06L293,16.33c-0.3,0-0.58,0.08-0.83,0.21c-0.04,0.02-0.08,0.05-0.12,0.07
		c-0.45,0.31-0.74,0.83-0.74,1.42v20.69l0.01,4.59c0,0.17,0.03,0.34,0.07,0.5c0.22,0.7,0.88,1.21,1.66,1.21h10.89
		c0.02,0,0.04,0,0.06,0c0.02,0,0.05,0,0.07,0.01c0.92,0.1,1.61,0.9,1.61,1.85l0.03,10.89c0,0.96,0.78,1.74,1.74,1.73l25.25-0.06
		c0.96,0,1.74-0.78,1.74-1.75v-0.04l-0.03-10.64l0.02-0.02c-0.01-0.07,0-0.14,0-0.21c0-0.05,0-0.09,0.01-0.14
		c0.07-0.95,0.88-1.67,1.85-1.67l10.89-0.03c0.96,0,1.74-0.78,1.73-1.74L348.84,17.95z M332.67,44.94l-0.03,0.03l-0.1,0.11
		l-24.76,0.06h-0.37c-0.83,0-1.53,0.59-1.7,1.37c0.1-0.86,0.84-1.54,1.73-1.54c-0.91-0.07-1.69-0.81-1.76-1.72l-0.01-0.01V38.7
		l-0.05-20.27l0,0l0.01-0.42c0.01-0.07,0.01-0.13,0.02-0.2v0c0.16-0.82,0.86-1.45,1.7-1.51c0,0,0,0,0.01,0h0l24.99-0.06l0,0.01h0.06
		l0.36,0.01c0.91,0.07,1.64,0.82,1.71,1.72c0,0,0,0,0,0.01l0.06,24.88v0.24C334.47,44,333.58,44.87,332.67,44.94z"/>
	<linearGradient id="SVGID_11_" gradientUnits="userSpaceOnUse" x1="275.0439" y1="98.0412" x2="316.1391" y2="-44.9953">
		<stop  offset="0" style="stop-color:#00FF00"/>
		<stop  offset="0.336" style="stop-color:#07F957"/>
		<stop  offset="1" style="stop-color:#15EEFF"/>
	</linearGradient>
	<path class="st11" d="M291.32,43.33c0,0.17,0.03,0.34,0.07,0.5c-0.05-0.17-0.08-0.35-0.08-0.53v-4.56L291.32,43.33z"/>
	<linearGradient id="SVGID_12_" gradientUnits="userSpaceOnUse" x1="274.6271" y1="97.9214" x2="315.7222" y2="-45.1151">
		<stop  offset="0" style="stop-color:#00FF00"/>
		<stop  offset="0.336" style="stop-color:#07F957"/>
		<stop  offset="1" style="stop-color:#15EEFF"/>
	</linearGradient>
	<path class="st12" d="M293.05,16.3h10.86c-0.05,0.01-0.09,0.01-0.14,0.01h-0.06L293,16.33c-0.3,0-0.58,0.08-0.83,0.21
		C292.43,16.39,292.73,16.3,293.05,16.3z"/>
	<linearGradient id="SVGID_13_" gradientUnits="userSpaceOnUse" x1="284.8106" y1="100.8472" x2="325.9057" y2="-42.1893">
		<stop  offset="0" style="stop-color:#00FF00"/>
		<stop  offset="0.336" style="stop-color:#07F957"/>
		<stop  offset="1" style="stop-color:#15EEFF"/>
	</linearGradient>
	<path class="st13" d="M305.67,18.04V38.7l-0.05-20.27l0,0l0.01-0.42c0.01-0.07,0.01-0.13,0.02-0.2
		C305.67,17.89,305.67,17.97,305.67,18.04z"/>
	<linearGradient id="SVGID_14_" gradientUnits="userSpaceOnUse" x1="290.4585" y1="102.4699" x2="331.5536" y2="-40.5667">
		<stop  offset="0" style="stop-color:#00FF00"/>
		<stop  offset="0.336" style="stop-color:#07F957"/>
		<stop  offset="1" style="stop-color:#15EEFF"/>
	</linearGradient>
	<path class="st14" d="M307.78,45.14h-0.37c-0.83,0-1.53,0.59-1.7,1.37c0.1-0.86,0.84-1.54,1.73-1.54L307.78,45.14z"/>
</g>
<g>
	<linearGradient id="SVGID_15_" gradientUnits="userSpaceOnUse" x1="345.5448" y1="118.2964" x2="386.6399" y2="-24.7401">
		<stop  offset="0" style="stop-color:#00FF00"/>
		<stop  offset="0.336" style="stop-color:#07F957"/>
		<stop  offset="1" style="stop-color:#15EEFF"/>
	</linearGradient>
	<path class="st15" d="M375.41,14.46v-0.21C375.42,14.31,375.41,14.39,375.41,14.46z"/>
	<linearGradient id="SVGID_16_" gradientUnits="userSpaceOnUse" x1="354.9384" y1="120.9953" x2="396.0336" y2="-22.0412">
		<stop  offset="0" style="stop-color:#00FF00"/>
		<stop  offset="0.336" style="stop-color:#07F957"/>
		<stop  offset="1" style="stop-color:#15EEFF"/>
	</linearGradient>
	<path class="st16" d="M402.49,1.89l-25.24,0.06c-0.96,0-1.74,0.78-1.74,1.74l0.03,10.43l-0.13,0.13l-0.02-10.56
		c0-0.96,0.78-1.74,1.74-1.75l25.25-0.06C402.41,1.88,402.45,1.88,402.49,1.89z"/>
	<linearGradient id="SVGID_17_" gradientUnits="userSpaceOnUse" x1="336.0044" y1="115.5554" x2="377.0995" y2="-27.4811">
		<stop  offset="0" style="stop-color:#00FF00"/>
		<stop  offset="0.336" style="stop-color:#07F957"/>
		<stop  offset="1" style="stop-color:#15EEFF"/>
	</linearGradient>
	<path class="st17" d="M361.1,18.04v20.69l-0.05-20.66c0-0.61,0.31-1.15,0.79-1.46C361.4,16.93,361.1,17.45,361.1,18.04z"/>
	<linearGradient id="SVGID_18_" gradientUnits="userSpaceOnUse" x1="346.2416" y1="118.4967" x2="387.3368" y2="-24.5399">
		<stop  offset="0" style="stop-color:#00FF00"/>
		<stop  offset="0.336" style="stop-color:#07F957"/>
		<stop  offset="1" style="stop-color:#15EEFF"/>
	</linearGradient>
	<path class="st18" d="M373.79,45.03c0.02,0,0.05,0,0.07,0.01c-0.04,0-0.08,0.01-0.12,0.01l-10.88,0.02c-0.79,0-1.46-0.52-1.67-1.24
		c0.22,0.7,0.88,1.21,1.66,1.21h10.89C373.75,45.03,373.77,45.03,373.79,45.03z"/>
	<linearGradient id="SVGID_19_" gradientUnits="userSpaceOnUse" x1="352.6687" y1="120.3432" x2="393.7639" y2="-22.6933">
		<stop  offset="0" style="stop-color:#00FF00"/>
		<stop  offset="0.336" style="stop-color:#07F957"/>
		<stop  offset="1" style="stop-color:#15EEFF"/>
	</linearGradient>
	<polygon class="st19" points="375.48,43.25 375.47,43.24 375.47,38.7 	"/>
	<linearGradient id="SVGID_20_" gradientUnits="userSpaceOnUse" x1="359.2111" y1="122.2228" x2="400.3062" y2="-20.8137">
		<stop  offset="0" style="stop-color:#00FF00"/>
		<stop  offset="0.336" style="stop-color:#07F957"/>
		<stop  offset="1" style="stop-color:#15EEFF"/>
	</linearGradient>
	<path class="st20" d="M402.15,16.24L402.15,16.24l-24.86,0.06c-0.04,0-0.08,0-0.12-0.01L402.15,16.24z"/>
	<linearGradient id="SVGID_21_" gradientUnits="userSpaceOnUse" x1="374.5847" y1="126.6398" x2="411.7534" y2="-2.7306">
		<stop  offset="0" style="stop-color:#00FF00"/>
		<stop  offset="0.336" style="stop-color:#07F957"/>
		<stop  offset="1" style="stop-color:#15EEFF"/>
	</linearGradient>
	<path class="st21" d="M406.33,16.24h-0.05C406.29,16.24,406.31,16.24,406.33,16.24L406.33,16.24z"/>
	<linearGradient id="SVGID_22_" gradientUnits="userSpaceOnUse" x1="366.3923" y1="124.286" x2="407.4874" y2="-18.7505">
		<stop  offset="0" style="stop-color:#00FF00"/>
		<stop  offset="0.336" style="stop-color:#07F957"/>
		<stop  offset="1" style="stop-color:#15EEFF"/>
	</linearGradient>
	<path class="st22" d="M377.24,44.97h25.2l-0.1,0.11l-24.76,0.06h-0.37c-0.83,0-1.53,0.59-1.7,1.37
		C375.6,45.64,376.34,44.97,377.24,44.97z"/>
	<linearGradient id="SVGID_23_" gradientUnits="userSpaceOnUse" x1="382.189" y1="128.8245" x2="423.2841" y2="-14.212">
		<stop  offset="0" style="stop-color:#00FF00"/>
		<stop  offset="0.336" style="stop-color:#07F957"/>
		<stop  offset="1" style="stop-color:#15EEFF"/>
	</linearGradient>
	<path class="st23" d="M404.22,46.71v10.89c0,0.02,0,0.04,0,0.06l-0.03-10.64l0.02-0.02c-0.01-0.07,0-0.14,0-0.21
		c0-0.05,0-0.09,0.01-0.14C404.22,46.66,404.22,46.68,404.22,46.71z"/>
	<linearGradient id="SVGID_24_" gradientUnits="userSpaceOnUse" x1="363.2472" y1="123.3824" x2="404.3423" y2="-19.6541">
		<stop  offset="0" style="stop-color:#00FF00"/>
		<stop  offset="0.336" style="stop-color:#07F957"/>
		<stop  offset="1" style="stop-color:#15EEFF"/>
	</linearGradient>
	<path class="st24" d="M418.64,17.95c0-0.96-0.78-1.74-1.75-1.74l-10.56,0.03h-0.1c-0.04,0-0.08,0-0.11,0
		c-1.02,0-1.85-0.82-1.85-1.85v-0.03l-0.03-10.74c0-0.94-0.75-1.71-1.69-1.73c-0.02,0-0.04,0-0.05,0h-0.01l-25.24,0.06
		c-0.96,0-1.74,0.78-1.74,1.74l0.03,10.43l-0.13,0.13c0.01,0.07,0,0.14,0,0.21v0.01c0,0.96-0.74,1.75-1.68,1.84h-0.02
		c-0.05,0.01-0.09,0.01-0.14,0.01h-0.06l-10.72,0.02c-0.3,0-0.58,0.08-0.83,0.21c-0.04,0.02-0.08,0.05-0.12,0.07
		c-0.45,0.31-0.74,0.83-0.74,1.42v20.69l0.01,4.59c0,0.17,0.03,0.34,0.07,0.5c0.22,0.7,0.88,1.21,1.66,1.21h10.89
		c0.02,0,0.04,0,0.06,0c0.02,0,0.05,0,0.07,0.01c0.92,0.1,1.61,0.9,1.61,1.85l0.03,10.89c0,0.96,0.78,1.74,1.74,1.73l25.25-0.06
		c0.96,0,1.74-0.78,1.74-1.75v-0.04l-0.03-10.64l0.02-0.02c-0.01-0.07,0-0.14,0-0.21c0-0.05,0-0.09,0.01-0.14
		c0.07-0.95,0.88-1.67,1.85-1.67l10.89-0.03c0.96,0,1.74-0.78,1.73-1.74L418.64,17.95z M402.47,44.94l-0.03,0.03l-0.1,0.11
		l-24.76,0.06h-0.37c-0.83,0-1.53,0.59-1.7,1.37c0.1-0.86,0.84-1.54,1.73-1.54c-0.91-0.07-1.69-0.81-1.76-1.72l-0.01-0.01V38.7
		l-0.05-20.27l0,0l0.01-0.42c0.01-0.07,0.01-0.13,0.02-0.2v0c0.16-0.82,0.86-1.45,1.7-1.51c0,0,0,0,0.01,0h0l24.99-0.06l0,0.01h0.06
		l0.36,0.01c0.91,0.07,1.64,0.82,1.71,1.72c0,0,0,0,0,0.01l0.06,24.88v0.24C404.26,44,403.37,44.87,402.47,44.94z"/>
	<linearGradient id="SVGID_25_" gradientUnits="userSpaceOnUse" x1="339.5146" y1="116.5639" x2="380.6097" y2="-26.4726">
		<stop  offset="0" style="stop-color:#00FF00"/>
		<stop  offset="0.336" style="stop-color:#07F957"/>
		<stop  offset="1" style="stop-color:#15EEFF"/>
	</linearGradient>
	<path class="st25" d="M361.11,43.33c0,0.17,0.03,0.34,0.07,0.5c-0.05-0.17-0.08-0.35-0.08-0.53v-4.56L361.11,43.33z"/>
	<linearGradient id="SVGID_26_" gradientUnits="userSpaceOnUse" x1="339.0977" y1="116.4442" x2="380.1929" y2="-26.5924">
		<stop  offset="0" style="stop-color:#00FF00"/>
		<stop  offset="0.336" style="stop-color:#07F957"/>
		<stop  offset="1" style="stop-color:#15EEFF"/>
	</linearGradient>
	<path class="st26" d="M362.84,16.3h10.86c-0.05,0.01-0.09,0.01-0.14,0.01h-0.06l-10.72,0.02c-0.3,0-0.58,0.08-0.83,0.21
		C362.22,16.39,362.52,16.3,362.84,16.3z"/>
	<linearGradient id="SVGID_27_" gradientUnits="userSpaceOnUse" x1="349.2813" y1="119.37" x2="390.3764" y2="-23.6666">
		<stop  offset="0" style="stop-color:#00FF00"/>
		<stop  offset="0.336" style="stop-color:#07F957"/>
		<stop  offset="1" style="stop-color:#15EEFF"/>
	</linearGradient>
	<path class="st27" d="M375.47,18.04V38.7l-0.05-20.27l0,0l0.01-0.42c0.01-0.07,0.01-0.13,0.02-0.2
		C375.46,17.89,375.47,17.97,375.47,18.04z"/>
	<linearGradient id="SVGID_28_" gradientUnits="userSpaceOnUse" x1="354.9292" y1="120.9926" x2="396.0243" y2="-22.0439">
		<stop  offset="0" style="stop-color:#00FF00"/>
		<stop  offset="0.336" style="stop-color:#07F957"/>
		<stop  offset="1" style="stop-color:#15EEFF"/>
	</linearGradient>
	<path class="st28" d="M377.57,45.14h-0.37c-0.83,0-1.53,0.59-1.7,1.37c0.1-0.86,0.84-1.54,1.73-1.54L377.57,45.14z"/>
</g>
</svg>
