<svg width="66" height="37" viewBox="0 0 66 37" fill="none" xmlns="http://www.w3.org/2000/svg">
<path d="M8.00215 9.52117V27.5426C8.05172 28.3508 8.72446 28.996 9.54592 28.996C9.68755 28.996 9.94957 28.996 9.94957 28.996H27.4976C28.3049 28.996 28.9494 29.6482 28.9494 30.4493V35.5467C28.9494 36.3549 28.2979 37 27.4976 37H9.46094C8.65365 37 8.00923 36.3478 8.00923 35.5467V30.7045C8.00923 30.7045 8.00923 30.584 8.00923 30.5202C8.00923 29.6766 7.33648 29.0102 6.50086 28.9889H1.45172C0.651502 28.9889 0 28.3367 0 27.5355V9.47155C0 8.66335 0.651502 8.0182 1.45172 8.0182H6.45129C7.30815 8.0182 8.00215 7.32343 8.00215 6.46561C8.00215 6.32382 8.00215 6.06151 8.00215 6.06151V1.45334C8.00215 0.652232 8.65365 0 9.46094 0H27.5047C28.312 0 28.9564 0.652232 28.9564 1.45334V6.55068C28.9564 7.35888 28.3049 8.00402 27.5047 8.00402H9.71588C9.71588 8.00402 9.59549 8.00402 9.53176 8.00402C8.69614 8.01111 8.02339 8.68461 8.00215 9.52117Z" fill="#00FF00"/>
<path d="M57.9906 22.6013C58.0472 23.4024 58.72 24.0404 59.5343 24.0404C59.676 24.0404 59.938 24.0404 59.938 24.0404H64.5339C65.3412 24.0404 65.9856 24.6927 65.9856 25.4938V35.5467C65.9856 36.3549 65.3341 37 64.5339 37H59.4352C58.6279 37 57.9835 36.3478 57.9835 35.5467V25.749H57.9764C57.9764 25.749 57.9764 25.6285 57.9764 25.5647C57.9764 24.7281 57.3178 24.0688 56.4964 24.0333H51.4331C50.6258 24.0333 49.9813 23.3811 49.9813 22.58V17.4827C49.9813 16.6745 50.6328 16.0293 51.4331 16.0293H56.4326C57.2541 16.0293 57.9268 15.3842 57.9764 14.576V9.73386H57.9693C57.9693 9.73386 57.9693 9.61334 57.9693 9.54953C57.9693 8.70588 57.2966 8.03947 56.461 8.0182H43.438C42.6307 8.0182 41.9863 8.67043 41.9863 9.47155V35.5467C41.9863 36.3549 41.3348 37 40.5346 37H35.4429C34.6356 37 33.9912 36.3478 33.9912 35.5467V1.45334C33.9912 0.645143 34.6427 0 35.4429 0H56.5459C57.3532 0 57.9976 0.652232 57.9976 1.45334V6.57195C58.0543 7.38015 58.727 8.01111 59.5414 8.01111C59.6831 8.01111 59.9451 8.01111 59.9451 8.01111H64.541C65.3483 8.01111 65.9927 8.66335 65.9927 9.46446V14.5618C65.9927 15.37 65.3412 16.0151 64.541 16.0151H59.7043C59.7043 16.0151 59.5839 16.0151 59.5202 16.0151C58.6775 16.0151 58.0118 16.6886 57.9906 17.5252V22.6013Z" fill="#00FF00"/>
</svg>
