<svg width="24" height="25" viewBox="0 0 24 25" fill="none" xmlns="http://www.w3.org/2000/svg">
<path d="M18 8.19287L17 8.19287V6.19287C17 3.43287 14.76 1.19287 12 1.19287C9.24 1.19287 7 3.43287 7 6.19287L7 8.19287H6C4.9 8.19287 4 9.09287 4 10.1929L4 20.1929C4 21.2929 4.9 22.1929 6 22.1929L18 22.1929C19.1 22.1929 20 21.2929 20 20.1929L20 10.1929C20 9.09287 19.1 8.19287 18 8.19287ZM12 17.1929C10.9 17.1929 10 16.2929 10 15.1929C10 14.0929 10.9 13.1929 12 13.1929C13.1 13.1929 14 14.0929 14 15.1929C14 16.2929 13.1 17.1929 12 17.1929ZM15.1 8.19287L8.9 8.19287V6.19287C8.9 4.48287 10.29 3.09287 12 3.09287C13.71 3.09287 15.1 4.48287 15.1 6.19287L15.1 8.19287Z" fill="black"/>
</svg>
