<svg width="129" height="203" viewBox="0 0 129 203" fill="none" xmlns="http://www.w3.org/2000/svg">
<path d="M31.8481 14.4314V61.043C31.8481 62.0594 31.0217 62.8972 29.9943 62.8972H21.1167C20.1005 62.8972 19.263 62.0706 19.263 61.043V14.5207C19.263 13.4484 18.3919 12.5772 17.3199 12.5772H8.5539C7.52655 12.5772 6.7002 11.7506 6.7002 10.7342V1.85419C6.7002 0.826565 7.52655 0 8.5539 0H17.4316C18.4478 0 19.2853 0.826565 19.2853 1.85419V10.7342C19.2853 11.7506 20.1228 12.5772 21.1278 12.5772H30.0055C31.0217 12.5772 31.8481 13.4038 31.8481 14.4314Z" fill="url(#paint0_linear)"/>
<path d="M76.8733 154.534V201.146C76.8733 202.162 76.047 203 75.0196 203H66.1419C65.1257 203 64.2882 202.173 64.2882 201.146V154.624C64.2882 153.551 63.4172 152.68 62.3452 152.68H53.5568C52.5406 152.68 51.7031 151.853 51.7031 150.826V141.946C51.7031 140.929 52.5295 140.092 53.5568 140.092H62.4345C63.4507 140.092 64.2882 140.918 64.2882 141.946V150.826C64.2882 151.842 65.1257 152.669 66.1308 152.669H75.0084C76.047 152.691 76.8733 153.518 76.8733 154.534Z" fill="url(#paint1_linear)"/>
<path d="M128.911 2.07758V23.4566C128.911 24.4842 128.085 25.3108 127.057 25.3108H118.716C117.42 25.4113 116.281 26.64 116.27 27.958V60.8196C116.27 61.8472 115.432 62.6738 114.416 62.6738H105.583C104.556 62.6738 103.73 61.8472 103.73 60.8196V27.2767C103.73 26.249 104.567 25.4225 105.583 25.4225H114.249C115.41 25.2326 116.303 24.2608 116.37 23.0545V14.6213C116.37 13.5936 115.533 12.7671 114.517 12.7671H93.1545C92.1271 12.7671 91.3008 11.9293 91.3008 10.9129V2.07758C91.3008 1.04995 92.1271 0.223389 93.1545 0.223389H127.057C128.085 0.223389 128.911 1.04995 128.911 2.07758Z" fill="url(#paint2_linear)"/>
<path d="M26.1971 97.68C26.2082 96.3619 27.2356 95.2785 28.5309 95.1891H36.8726C37.9 95.1891 38.7263 94.3625 38.7263 93.3349V84.5108C38.7263 83.4832 37.9 82.6566 36.8726 82.6566H28.0508C27.0234 82.6566 26.1971 83.4832 26.1971 84.5108V92.7988C26.1301 94.128 25.0245 95.1891 23.6733 95.1891H23.6398H15.8565C14.6058 95.0327 13.6455 93.9716 13.6455 92.6759V84.4996C13.6455 83.472 14.4718 82.6454 15.4992 82.6454H24.3322C25.3595 82.6454 26.1859 81.8189 26.1859 80.7912V71.9671C26.1859 70.9395 25.3484 70.1129 24.3322 70.1129H2.96992C1.94256 70.1017 1.11621 70.9283 1.11621 71.9559V93.3238C1.11621 94.3514 1.94256 95.1779 2.96992 95.1779H11.1553V95.2003C12.4729 95.2115 13.5561 96.2391 13.6455 97.5348H13.6566V104.896C13.5785 106.091 12.6516 107.063 11.4791 107.219H2.96992C1.94256 107.219 1.11621 108.046 1.11621 109.073V117.897C1.11621 118.925 1.94256 119.752 2.96992 119.752H11.1664V119.763C12.4841 119.774 13.5673 120.801 13.6566 122.097V130.944C13.6566 131.971 14.483 132.798 15.5103 132.798H36.8838C37.9111 132.798 38.7375 131.971 38.7375 130.944V109.576C38.7375 108.548 37.9111 107.722 36.8838 107.722H28.6091C27.2803 107.655 26.2194 106.549 26.2194 105.197V105.164H26.2082L26.1971 97.68ZM26.1971 118.411C26.1971 119.439 25.3595 120.265 24.3434 120.265H16.0575C14.7287 120.198 13.6678 118.59 13.6678 117.238V117.205H13.6566V109.632H13.6678C13.7348 108.302 14.8068 107.722 16.158 107.722H23.8297C25.0804 107.8 26.0966 108.783 26.1971 110.023V118.411Z" fill="url(#paint3_linear)"/>
<path d="M103.93 108.749V116.948C103.93 117.976 104.768 118.802 105.784 118.802H127.146C128.173 118.802 129 119.629 129 120.656V129.48C129 130.508 128.173 131.335 127.146 131.335H93.2434C92.216 131.335 91.3896 130.508 91.3896 129.48V108.124C91.3896 107.096 92.2272 106.27 93.2434 106.27H101.373V106.258H101.406C102.746 106.258 103.841 105.208 103.93 103.89V95.5801C103.93 94.5524 104.768 93.7259 105.784 93.7259H113.913V93.7147H113.947C115.276 93.7147 116.37 92.6871 116.471 91.3802V83.472C116.37 82.1763 115.287 81.1487 113.969 81.1375H93.2434C92.216 81.1375 91.3896 80.3109 91.3896 79.2833V70.4592C91.3896 69.4315 92.2272 68.605 93.2434 68.605H114.617C115.644 68.605 116.471 69.4315 116.471 70.4592V78.736C116.538 80.0317 117.576 81.104 118.86 81.171V81.1822H127.146C128.173 81.1822 129 82.0087 129 83.0364V91.8717C129 92.8993 128.173 93.7259 127.146 93.7259H118.782C117.498 93.8376 116.493 94.9099 116.471 96.2167H116.459V104.415C116.459 105.443 115.622 106.27 114.606 106.27H106.23C104.957 106.37 103.941 107.442 103.93 108.749Z" fill="url(#paint4_linear)"/>
<path d="M12.5404 179.052V187.251C12.5404 188.278 13.3779 189.105 14.3941 189.105H35.7564C36.7838 189.105 37.6101 189.931 37.6101 190.959V199.783C37.6101 200.811 36.7838 201.637 35.7564 201.637H1.85371C0.82635 201.637 0 200.811 0 199.783V178.415C0 177.388 0.837517 176.561 1.85371 176.561H9.98321V176.55H10.0167C11.3567 176.55 12.4511 175.5 12.5404 174.182V165.872C12.5404 164.844 13.3779 164.017 14.3941 164.017H22.5236V164.006H22.5571C23.886 164.006 24.9804 162.979 25.0809 161.672V153.764C24.9804 152.468 23.8972 151.44 22.5795 151.429H1.85371C0.82635 151.429 0 150.602 0 149.575V140.751C0 139.723 0.837517 138.896 1.85371 138.896H23.2271C24.2545 138.896 25.0809 139.723 25.0809 140.751V149.027C25.1479 150.323 26.1864 151.396 27.4706 151.463V151.474H35.7564C36.7838 151.474 37.6101 152.3 37.6101 153.328V162.163C37.6101 163.191 36.7838 164.017 35.7564 164.017H27.3924C26.1082 164.129 25.1032 165.201 25.0809 166.508H25.0697V174.707C25.0697 175.735 24.2322 176.561 23.216 176.561H14.8408C13.5678 176.673 12.5628 177.745 12.5404 179.052Z" fill="url(#paint5_linear)"/>
<path d="M58.3699 83.9969C58.381 82.6789 59.4084 81.5954 60.7038 81.506V81.4949H81.6864C82.7137 81.4949 83.5401 80.6571 83.5401 79.6407V70.7607C83.5401 69.7331 82.7137 68.9065 81.6864 68.9065H60.2236C59.1962 68.9065 58.3699 69.7331 58.3699 70.7607V79.1045C58.3029 80.4002 57.2643 81.4278 55.969 81.4949H47.6385C46.6111 81.4949 45.7848 82.3214 45.7848 83.3491V106.616H45.7178V129.916C45.7178 130.944 46.5553 131.77 47.5715 131.77H69.0343C70.0616 131.77 70.888 130.944 70.888 129.916V121.684C70.8991 120.366 71.9935 119.36 73.2888 119.26H81.6752C82.7025 119.26 83.5289 118.433 83.5289 117.406V95.9374C83.5289 94.9098 82.7025 94.0832 81.6752 94.0832H60.2236C59.1962 94.0832 58.3699 93.2567 58.3699 92.229V83.9969ZM60.1677 106.672H69.1124C70.1398 106.672 70.9661 107.498 70.9661 108.526V116.791C70.8991 118.087 69.8606 119.115 68.5653 119.182H60.1677C59.1404 119.182 58.314 118.344 58.314 117.328V108.537C58.314 107.509 59.1404 106.672 60.1677 106.672Z" fill="url(#paint6_linear)"/>
<path d="M70.4076 15.1239V22.6188V22.6524C70.4076 24.0039 71.4684 25.1097 72.7973 25.1767H81.0831C82.1105 25.1767 82.9368 26.0033 82.9368 27.0309V60.9424C82.9368 61.9701 82.1105 62.7966 81.0831 62.7966H72.2613C71.2339 62.7966 70.4076 61.9701 70.4076 60.9424V27.5112C70.3071 26.2155 69.2351 25.1879 67.9174 25.1767H47.1916C46.1642 25.1767 45.3379 24.339 45.3379 23.3225V1.94354C45.3379 0.915921 46.1642 0.0893555 47.1916 0.0893555H56.0246C57.052 0.0893555 57.8783 0.915921 57.8783 1.94354V10.7677C57.8783 11.7953 58.7047 12.6219 59.732 12.6219H67.8615H67.895C69.2462 12.6219 70.3517 11.5607 70.4187 10.2315V1.94354C70.4187 0.915921 71.2563 0.0893555 72.2725 0.0893555H81.0943C82.1217 0.0893555 82.948 0.915921 82.948 1.94354V10.7677C82.948 11.7953 82.1217 12.6219 81.0943 12.6219H72.7526C71.4573 12.7224 70.4299 13.8059 70.4076 15.1239Z" fill="url(#paint7_linear)"/>
<path d="M103.395 155.003V163.235C103.395 164.263 104.221 165.09 105.248 165.09H126.711C127.738 165.09 128.565 165.927 128.565 166.944V188.412C128.565 189.44 127.727 190.266 126.711 190.266H118.291C117.007 190.378 116.002 191.45 115.98 192.757H115.969V201.001C115.969 202.028 115.142 202.855 114.115 202.855H92.6633C91.6359 202.855 90.8096 202.017 90.8096 201.001V192.121C90.8096 191.093 91.6471 190.266 92.6633 190.266H113.434V190.255H113.467C114.785 190.255 115.868 189.239 115.991 187.954V179.532C115.991 178.505 115.165 177.678 114.137 177.678H92.6633C91.6359 177.678 90.8096 176.851 90.8096 175.824V154.367C90.8096 153.339 91.6471 152.512 92.6633 152.512H100.871C102.222 152.512 103.328 151.451 103.395 150.122V141.778C103.395 140.751 104.221 139.924 105.248 139.924H126.711C127.738 139.924 128.565 140.751 128.565 141.778V150.658C128.565 151.686 127.727 152.512 126.711 152.512H105.74V152.524C104.433 152.613 103.417 153.685 103.395 155.003Z" fill="url(#paint8_linear)"/>
<defs>
<linearGradient id="paint0_linear" x1="18.7965" y1="-24.262" x2="21.1022" y2="152.463" gradientUnits="userSpaceOnUse">
<stop stop-color="#00FF00"/>
<stop offset="1" stop-color="#15EEFF"/>
</linearGradient>
<linearGradient id="paint1_linear" x1="61.9814" y1="-24.8254" x2="64.287" y2="151.899" gradientUnits="userSpaceOnUse">
<stop stop-color="#00FF00"/>
<stop offset="1" stop-color="#15EEFF"/>
</linearGradient>
<linearGradient id="paint2_linear" x1="109.686" y1="-25.4478" x2="111.992" y2="151.277" gradientUnits="userSpaceOnUse">
<stop stop-color="#00FF00"/>
<stop offset="1" stop-color="#15EEFF"/>
</linearGradient>
<linearGradient id="paint3_linear" x1="18.29" y1="-24.2554" x2="20.5957" y2="152.469" gradientUnits="userSpaceOnUse">
<stop stop-color="#00FF00"/>
<stop offset="1" stop-color="#15EEFF"/>
</linearGradient>
<linearGradient id="paint4_linear" x1="108.477" y1="-25.432" x2="110.783" y2="151.293" gradientUnits="userSpaceOnUse">
<stop stop-color="#00FF00"/>
<stop offset="1" stop-color="#15EEFF"/>
</linearGradient>
<linearGradient id="paint5_linear" x1="16.1913" y1="-24.228" x2="18.497" y2="152.497" gradientUnits="userSpaceOnUse">
<stop stop-color="#00FF00"/>
<stop offset="1" stop-color="#15EEFF"/>
</linearGradient>
<linearGradient id="paint6_linear" x1="63.0005" y1="-24.8388" x2="65.3062" y2="151.886" gradientUnits="userSpaceOnUse">
<stop stop-color="#00FF00"/>
<stop offset="1" stop-color="#15EEFF"/>
</linearGradient>
<linearGradient id="paint7_linear" x1="63.6516" y1="-24.8472" x2="65.9573" y2="151.878" gradientUnits="userSpaceOnUse">
<stop stop-color="#00FF00"/>
<stop offset="1" stop-color="#15EEFF"/>
</linearGradient>
<linearGradient id="paint8_linear" x1="107.128" y1="-25.4145" x2="109.434" y2="151.31" gradientUnits="userSpaceOnUse">
<stop stop-color="#00FF00"/>
<stop offset="1" stop-color="#15EEFF"/>
</linearGradient>
</defs>
</svg>
