<svg width="50" height="50" viewBox="0 0 50 50" fill="none" xmlns="http://www.w3.org/2000/svg">
<path d="M37.5003 27.0832H27.0837V37.4998C27.0837 38.6457 26.1462 39.5832 25.0003 39.5832C23.8545 39.5832 22.917 38.6457 22.917 37.4998V27.0832H12.5003C11.3545 27.0832 10.417 26.1457 10.417 24.9998C10.417 23.854 11.3545 22.9165 12.5003 22.9165H22.917V12.4998C22.917 11.354 23.8545 10.4165 25.0003 10.4165C26.1462 10.4165 27.0837 11.354 27.0837 12.4998V22.9165H37.5003C38.6462 22.9165 39.5837 23.854 39.5837 24.9998C39.5837 26.1457 38.6462 27.0832 37.5003 27.0832Z" fill="#242428"/>
</svg>
