<svg width="28" height="24" viewBox="0 0 28 24" fill="none" xmlns="http://www.w3.org/2000/svg">
<path d="M9.02895 0.292138C2.502 1.82099 -1.4124 8.73624 0.475411 15.3955C2.1848 21.4264 8.19849 25.092 14.1108 23.7071C20.6378 22.1783 24.5544 15.263 22.6644 8.6037C20.955 2.57285 14.9391 -1.09274 9.02895 0.292138ZM14.058 19.8039C9.50916 21.3556 4.70262 18.4327 3.78845 13.5559C3.03288 9.53152 5.32161 5.48429 9.073 4.19997C13.6262 2.6414 18.4416 5.57113 19.3513 10.4525C20.1025 14.4769 17.8116 18.5241 14.058 19.8039Z" fill="#EEEEEE"/>
<path d="M27.8248 22.0591L27.2543 23.0692C26.8996 23.6954 26.122 23.9056 25.5163 23.5377L18.3968 19.1957C17.7932 18.8277 17.5905 18.021 17.9452 17.3926L18.5157 16.3825C18.8704 15.7563 19.648 15.5461 20.2537 15.914L27.3732 20.2537C27.9768 20.6262 28.1795 21.4329 27.8248 22.0591Z" fill="#EEEEEE"/>
</svg>
